<svg xmlns="http://www.w3.org/2000/svg" viewBox="0 0 42 42">
	<path d="M31.26 26.37c0.95 .46 2.23 .78 3.33 .78 1.89 0 3.78-.78 5.2-2.04 1.42-1.43 2.21-3.16 2.21-5.22 0-1.73-.61-3.47-1.74-4.73 1.91-2.85 .81-7.74-2.82-11.37-2.53-2.53-5.55-3.79-8.07-3.79h-.15v2.21h0.15c2.21 0 4.59 1.26 6.65 3.16 1.57 1.57 2.67 3.63 2.99 5.52 .15 .96 .32 2.69-.79 3.79-.78 .8-1.74 .96-2.52 .96-2.21 0-4.59-1.27-6.65-3.17-1.57-1.58-2.67-3.47-2.99-5.37-.15-.47-.15-.94-.15-1.42h-2.06c0 .64 0 1.26 .16 1.9 .47 2.21 1.73 4.57 3.62 6.31 2.53 2.53 5.54 3.79 8.07 3.79 1.25 0 2.21-.32 3.14-.78 .81 .94 1.27 2.05 1.27 3.31 0 1.42-.64 2.68-1.57 3.63-1.91 1.89-5.22 2.06-7.28 .16-.93-4.89-5.2-8.52-10.25-8.52l0 0 0 0c-5.05 0-9.32 3.63-10.27 8.52-2.04 1.73-5.21 1.73-7.26-.16-.95-.95-1.58-2.37-1.58-3.63 0-1.26 .48-2.37 1.26-3.31 .95 .62 2.05 .78 3.17 .78 2.52 0 5.68-1.26 8.04-3.79 1.9-1.9 3.17-4.1 3.63-6.31 .16-.64 .16-1.26 .16-1.9h-2.05c0 .48 0 .95-.16 1.42-.47 1.74-1.42 3.63-3.16 5.21-2.05 2.06-4.42 3.17-6.62 3.17-.8 0-1.74-.16-2.53-.96-1.11-.94-.95-2.67-.8-3.63 .32-1.89 1.43-3.79 3.17-5.52 2.05-2.06 4.41-3.16 6.63-3.16h0.15v-2.05h-.15c-2.68 0-5.69 1.42-8.05 3.79-3.63 3.63-4.74 8.36-2.85 11.37-1.1 1.26-1.74 2.99-1.74 4.73 0 1.9 .8 3.79 2.22 5.21s3.15 2.06 5.21 2.06c1.26 0 2.37-.32 3.31-.78 .16 3.45 2.05 6.45 4.89 8.36h-3.94c-3 0-5.52 2.53-5.52 5.52h1.57c0-2.06 1.58-3.63 3.64-3.78-.96 .94-1.58 2.36-1.58 3.78h1.58c0-2.06 1.73-3.78 3.79-3.78-.96 .94-1.58 2.36-1.58 3.78h1.58c0-2.06 1.26-3.78 4.1-3.78h2.68c3 0 4.11 1.72 4.11 3.78h1.57c0-1.57-.62-2.85-1.57-3.78 2.06 0 3.8 1.72 3.8 3.78h1.57c0-1.42-.64-2.85-1.57-3.78 2.04 .15 3.63 1.72 3.63 3.78h1.57c0-2.99-2.38-5.52-5.52-5.52h-3.63c3.31-1.91 5.2-5.05 5.35-8.53 m-10.41 8.04c-4.74 0-8.53-3.78-8.53-8.51s3.79-8.38 8.53-8.54c4.57 0 8.52 3.79 8.52 8.54 0 4.56-3.78 8.36-8.52 8.51"/>
</svg>